<?xml version="1.0" encoding="UTF-8"?>
<svg id="Layer_1" data-name="Layer 1" xmlns="http://www.w3.org/2000/svg" viewBox="0 0 240.64 240.64">
  <defs>
    <style>
      .cls-1 {
        fill: #9b3a3d;
      }

      .cls-2 {
        fill: #e0b3c8;
      }
    </style>
  </defs>
  <path class="cls-1" d="M160.42,80.21h-80.21s0-68.44,0-68.44C80.21,5.27,85.48,0,91.98,0h56.67c6.5,0,11.77,5.27,11.77,11.77v68.44Z"/>
  <path class="cls-1" d="M160.42,80.21h68.21c6.62,0,12,5.38,12,12v56.21c0,6.62-5.38,12-12,12h-68.21v-80.21h0Z"/>
  <path class="cls-1" d="M12,80.21h68.21v80.21H12C5.38,160.42,0,155.05,0,148.42v-56.21C0,85.59,5.38,80.21,12,80.21Z"/>
  <path class="cls-2" d="M119.92,80.21h40.51v80.21h-80.21v-40.51c0-21.91,17.79-39.7,39.7-39.7Z"/>
  <path class="cls-1" d="M119.92,160.42h40.51v80.21h-80.21v-40.51c0-21.91,17.79-39.7,39.7-39.7Z" transform="translate(240.64 401.06) rotate(-180)"/>
</svg>